<svg xmlns="http://www.w3.org/2000/svg" width="18.861" height="24.194" viewBox="0 0 18.861 24.194">
      <path id="Path_17" data-name="Path 17" d="M67.416,10.832h-2.6V7.807a1.28,1.28,0,0,0-.658-1.124c0-.011,0-.021,0-.032V6.137a1.89,1.89,0,0,0-.728-1.74L62.9,3.963a1.021,1.021,0,0,1-.209-.232.936.936,0,0,0,.646-.9V.6a.593.593,0,0,0-.584-.6H59.415a.35.35,0,0,0-.345.354.35.35,0,0,0,.345.354h3.232V2.835a.226.226,0,0,1-.222.229H57.277a.226.226,0,0,1-.222-.229V.709H57.8a.35.35,0,0,0,.345-.354A.35.35,0,0,0,57.8,0h-.855a.593.593,0,0,0-.584.6V2.835a.933.933,0,0,0,.721.917,23.092,23.092,0,0,0-.8,2.781h-.164a1.259,1.259,0,0,0-1.239,1.275v3.025H52.917a2.216,2.216,0,0,0-2.181,2.244v6.083a.345.345,0,1,0,.689,0V16.3a2.141,2.141,0,0,0,1.492.609h.135v.378a1.478,1.478,0,1,0,2.955,0v-.378h8.319v.378a1.478,1.478,0,1,0,2.955,0v-.378h.135a2.141,2.141,0,0,0,1.492-.609V21.95a1.516,1.516,0,0,1-1.492,1.535h-14.5a1.516,1.516,0,0,1-1.492-1.535V20.821a.345.345,0,1,0-.689,0V21.95a2.216,2.216,0,0,0,2.181,2.244h14.5A2.216,2.216,0,0,0,69.6,21.95V13.076A2.216,2.216,0,0,0,67.416,10.832ZM56.933,7.267c0-1.831.818-2.635.843-3.494h4.162a1.742,1.742,0,0,0,.534.748l.535.433c.382.309.455.5.465,1.189v.39h-.141a.881.881,0,0,0-.867.892V9.432a.248.248,0,0,1-.245.252h-.377a.248.248,0,0,1-.245-.252V9.221a.345.345,0,1,0-.689,0,.248.248,0,0,1-.245.252h-.377a.248.248,0,0,1-.245-.252V8.912a.345.345,0,1,0-.689,0,.248.248,0,0,1-.245.252h-.377a.248.248,0,0,1-.245-.252V8.524a.345.345,0,1,0-.689,0,.248.248,0,0,1-.245.252h-.377a.248.248,0,0,1-.245-.252V7.267Zm-1.36.54a.559.559,0,0,1,.55-.566h.121c0,.227,0,.906,0,1.283a.948.948,0,0,0,.934.96h.377A.906.906,0,0,0,57.93,9.4a.929.929,0,0,0,.8.47h.377a.908.908,0,0,0,.414-.1.926.926,0,0,0,.764.409h.377a.908.908,0,0,0,.466-.128.922.922,0,0,0,.712.34h.377a.948.948,0,0,0,.934-.96V7.424a.181.181,0,0,1,.178-.183h.247a.559.559,0,0,1,.55.566v3.025H55.573Zm-.255,9.483a.789.789,0,1,1-1.576,0v-.933h1.576Zm0-1.641H53.742v-.57a.063.063,0,0,1,.062-.064h1.452a.063.063,0,0,1,.062.064v.57ZM66.592,17.29a.789.789,0,1,1-1.576,0v-.933h1.576Zm0-1.641H65.015v-.57a.063.063,0,0,1,.062-.064h1.452a.063.063,0,0,1,.062.064v.57Zm2.317-.98A1.516,1.516,0,0,1,67.416,16.2h-.135V15.078a.763.763,0,0,0-.752-.773H65.078a.763.763,0,0,0-.752.773V16.2H56.007V15.078a.763.763,0,0,0-.752-.773H53.8a.763.763,0,0,0-.752.773V16.2h-.135a1.516,1.516,0,0,1-1.492-1.535V13.076a1.516,1.516,0,0,1,1.492-1.535h14.5a1.516,1.516,0,0,1,1.492,1.535v1.592Z" transform="translate(-50.736 0)" fill="red"/>
</svg>
