<svg xmlns="http://www.w3.org/2000/svg" width="21.215" height="17.32" viewBox="0 0 21.215 17.32">
  <g id="credit-card_1_" data-name="credit-card (1)" transform="translate(1 -46.014)">
    <g id="Group_10" data-name="Group 10" transform="translate(-1 46.014)">
      <g id="Group_9" data-name="Group 9" transform="translate(0 0)">
        <path id="Path_96" data-name="Path 96" d="M263.887,246.169h5.656a.334.334,0,0,0,.353-.353v-3.181a.334.334,0,0,0-.353-.353h-5.656a.334.334,0,0,0-.353.353v3.181A.334.334,0,0,0,263.887,246.169Zm.353-3.181h4.949v2.474h-4.949Z" transform="translate(-252.576 -234.151)" fill="red"/>
        <path id="Path_97" data-name="Path 97" d="M33.487,208.854h2.828a.353.353,0,1,0,0-.707H33.487a.353.353,0,1,0,0,.707Z" transform="translate(-31.72 -201.431)" fill="red"/>
        <path id="Path_98" data-name="Path 98" d="M135.887,208.854h2.828a.353.353,0,1,0,0-.707h-2.828a.353.353,0,1,0,0,.707Z" transform="translate(-129.878 -201.431)" fill="red"/>
        <path id="Path_99" data-name="Path 99" d="M33.487,242.988h4.6a.353.353,0,0,0,0-.707h-4.6a.353.353,0,1,0,0,.707Z" transform="translate(-31.72 -234.151)" fill="red"/>
        <path id="Path_100" data-name="Path 100" d="M179.614,242.28h-1.06a.353.353,0,0,0,0,.707h1.06a.353.353,0,0,0,0-.707Z" transform="translate(-170.777 -234.15)" fill="red"/>
        <path id="Path_101" data-name="Path 101" d="M19.89,49.761a1.317,1.317,0,0,0-.954-.53l-.848-.1v-1.7a1.418,1.418,0,0,0-1.414-1.414H.414A1.418,1.418,0,0,0-1,47.428V58.739A1.419,1.419,0,0,0,.013,60.094a1.376,1.376,0,0,0,1.249,1.4l16.331,1.838h.141a1.415,1.415,0,0,0,1.414-1.2l1.06-11.347A1.374,1.374,0,0,0,19.89,49.761ZM-.293,48.488H17.381v2.121H-.293Zm.707-1.767h16.26a.709.709,0,0,1,.707.707v.353H-.293v-.353A.709.709,0,0,1,.414,46.721ZM-.293,58.739V51.316H17.381v7.423a.709.709,0,0,1-.707.707H.414A.709.709,0,0,1-.293,58.739ZM19.5,50.644l-1.06,11.347a.713.713,0,0,1-.778.636l-16.3-1.838a.715.715,0,0,1-.636-.636H16.674a1.418,1.418,0,0,0,1.414-1.414V49.8l.813.071a.6.6,0,0,1,.46.247A.716.716,0,0,1,19.5,50.644Z" transform="translate(1 -46.014)" fill="red"/>
      </g>
    </g>
  </g>
</svg>
