<svg xmlns="http://www.w3.org/2000/svg" width="19.448" height="15.771" viewBox="0 0 19.448 15.771">
  <g id="safe-box" transform="translate(0 -48.4)">
    <path id="Path_68" data-name="Path 68" d="M272.369,331.451H263.5v.57h5.583l1.14,1.709H271.8v-1.709h1.14V328.6h-.57Zm-1.14,1.709h-.7l-.76-1.14h1.462Z" transform="translate(-253.491 -269.559)" fill="red"/>
    <path id="Path_69" data-name="Path 69" d="M.57,48.97H2.849V48.4H0V62.462H1.14v1.709H2.716l1.14-1.709H9.439v-.57H.57ZM2.412,63.6h-.7v-1.14H3.171Z" transform="translate(0 0)" fill="red"/>
    <path id="Path_70" data-name="Path 70" d="M90,48.4v.57h15.46v9.5h.57V48.4Z" transform="translate(-86.58)" fill="red"/>
    <path id="Path_71" data-name="Path 71" d="M31.14,109.54H30v1.14h.57v-.57h1.709v1.709H30.57v-.57H30v1.14h1.14v1.527H30v1.14h.57v-.57h1.709v1.709H30.57v-.57H30v1.14h1.14v1.14H46.03v-9.5h-7.16v.57h6.59v8.364H31.709v-.57h1.14v-2.849h-1.14v-1.527h1.14V109.54h-1.14v-.57H38.3v-.57H31.14Z" transform="translate(-28.86 -57.721)" fill="red"/>
    <path id="Path_72" data-name="Path 72" d="M132.628,168.279V166H127.5v5.128h5.128v-2.279h-.57v1.709H128.07V166.57h3.988v1.709Z" transform="translate(-122.657 -113.133)" fill="red"/>
    <path id="Path_73" data-name="Path 73" d="M187.5,256h.57v.57h-.57Z" transform="translate(-180.378 -199.713)" fill="red"/>
    <path id="Path_74" data-name="Path 74" d="M187.5,196h.57v.57h-.57Z" transform="translate(-180.378 -141.993)" fill="red"/>
    <path id="Path_75" data-name="Path 75" d="M157.5,226h.57v.57h-.57Z" transform="translate(-151.516 -170.854)" fill="red"/>
    <path id="Path_76" data-name="Path 76" d="M217.5,226h.57v.57h-.57Z" transform="translate(-209.238 -170.854)" fill="red"/>
    <path id="Path_77" data-name="Path 77" d="M187.5,226h.57v.57h-.57Z" transform="translate(-180.378 -170.854)" fill="red"/>
    <path id="Path_78" data-name="Path 78" d="M217.5,196h.57v.57h-.57Z" transform="translate(-209.238 -141.993)" fill="red"/>
    <path id="Path_79" data-name="Path 79" d="M217.5,256h.57v.57h-.57Z" transform="translate(-209.238 -199.713)" fill="red"/>
    <path id="Path_80" data-name="Path 80" d="M157.5,256h.57v.57h-.57Z" transform="translate(-151.516 -199.713)" fill="red"/>
    <path id="Path_81" data-name="Path 81" d="M157.5,196h.57v.57h-.57Z" transform="translate(-151.516 -141.993)" fill="red"/>
    <path id="Path_82" data-name="Path 82" d="M279.778,173.5a2.279,2.279,0,1,0,2.113,3.134h.736v-1.709h-.736A2.3,2.3,0,0,0,279.778,173.5Zm0,3.988a1.709,1.709,0,1,1,1.48-2.564h-1.765a.855.855,0,0,0,0,1.709h1.765A1.722,1.722,0,0,1,279.778,177.489Zm2.279-1.424h-2.564a.285.285,0,0,1,0-.57h2.564Z" transform="translate(-266.958 -120.349)" fill="red"/>
    <path id="Path_83" data-name="Path 83" d="M407,138.4h.57v.57H407Z" transform="translate(-391.54 -86.58)" fill="red"/>
    <path id="Path_84" data-name="Path 84" d="M407,168.4h.57v.57H407Z" transform="translate(-391.54 -115.441)" fill="red"/>
    <path id="Path_85" data-name="Path 85" d="M467,78.4h.57v.57H467Z" transform="translate(-449.261 -28.859)" fill="red"/>
    <path id="Path_86" data-name="Path 86" d="M467,108.4h.57v1.709H467Z" transform="translate(-449.261 -57.72)" fill="red"/>
    <path id="Path_87" data-name="Path 87" d="M60,373.6h.57v.57H60Z" transform="translate(-57.721 -312.848)" fill="red"/>
    <path id="Path_88" data-name="Path 88" d="M30,373.6h.57v.57H30Z" transform="translate(-28.86 -312.848)" fill="red"/>
  </g>
</svg>
