<svg xmlns="http://www.w3.org/2000/svg" width="18.861" height="19.47" viewBox="0 0 18.861 19.47">
  <g id="wallet" transform="translate(-8.008 0)">
    <g id="Group_4" data-name="Group 4" transform="translate(8.008 0)">
      <g id="Group_3" data-name="Group 3" transform="translate(0 0)">
        <path id="Path_52" data-name="Path 52" d="M26.246,11.4h-.291V8.78a1.232,1.232,0,0,0-.523-1.007V7.416a.941.941,0,0,0-.94-.94h-.218l.832-1.221a.9.9,0,0,0-.236-1.249L19.222.157a.9.9,0,0,0-1.249.237L13.1,7.547H11.741l.327-3.313a.1.1,0,0,1,.062-.082,2.109,2.109,0,0,0,1.029-.836.1.1,0,0,1,.092-.043l2.128.21a.277.277,0,1,0,.055-.552l-2.128-.21a.649.649,0,0,0-.615.3,1.551,1.551,0,0,1-.757.615.649.649,0,0,0-.418.547l-.333,3.368H10.83l.518-5.24A.344.344,0,0,1,11.723,2l4.3.425a.277.277,0,1,0,.055-.552l-4.3-.425a.9.9,0,0,0-.983.806l-.417,4.224H9.667a.941.941,0,0,0-.94.94V7.66A1.234,1.234,0,0,0,8.008,8.78v9.457a1.234,1.234,0,0,0,1.233,1.233h15.48a1.234,1.234,0,0,0,1.233-1.233V15.613h.291a.624.624,0,0,0,.624-.624V12.028A.624.624,0,0,0,26.246,11.4ZM24.492,7.031h0a.386.386,0,0,1,.385.385v.141a1.236,1.236,0,0,0-.156-.01H23.544l.352-.516ZM18.432.706a.342.342,0,0,1,.22-.144.349.349,0,0,1,.065-.006.341.341,0,0,1,.193.06l5.648,3.849a.344.344,0,0,1,.091.478L22.873,7.547h-.426l.87-1.277a.649.649,0,0,0,.03-.688,1.551,1.551,0,0,1-.186-.957A.649.649,0,0,0,22.881,4l-2.928-2a.649.649,0,0,0-.682-.033,1.551,1.551,0,0,1-.959.177.657.657,0,0,0-.629.28L14.2,7.547h-.426Zm.122,4.711a2.289,2.289,0,0,0-2.281,2.13H14.867l3.274-4.8h0a.1.1,0,0,1,.081-.044h.013a2.109,2.109,0,0,0,1.3-.241.1.1,0,0,1,.1.006l2.928,2a.1.1,0,0,1,.043.092,2.109,2.109,0,0,0,.253,1.3.1.1,0,0,1-.005.1l-1.083,1.59h-.941A2.289,2.289,0,0,0,18.554,5.417Zm1.725,2.13H16.829a1.732,1.732,0,0,1,3.449,0Zm-11-.131a.386.386,0,0,1,.385-.385h.656l-.051.516h-.99ZM8.563,8.78A.679.679,0,0,1,9.241,8.1h15.48a.679.679,0,0,1,.678.678v.77H8.563ZM25.4,18.238a.679.679,0,0,1-.678.678H9.241a.679.679,0,0,1-.678-.678v-.77h1.5a.277.277,0,0,0,0-.555h-1.5V10.1H25.4v1.3H22.762a2.107,2.107,0,0,0-1.893,1.186l0,.007-.008.018a2.092,2.092,0,0,0-.1.268h0a2.1,2.1,0,0,0,2.01,2.728H25.4v1.3H11.835a.277.277,0,1,0,0,.555H25.4Zm.915-3.248a.069.069,0,0,1-.069.069H22.762a1.551,1.551,0,0,1-1.362-.811q-.018-.033-.034-.067-.033-.068-.059-.139a1.551,1.551,0,0,1,0-1.064q.026-.071.059-.139.016-.034.034-.067a1.551,1.551,0,0,1,1.362-.811h3.484a.069.069,0,0,1,.069.069Z" transform="translate(-8.008 0)" fill="red"/>
      </g>
    </g>
    <g id="Group_6" data-name="Group 6" transform="translate(21.701 12.383)">
      <g id="Group_5" data-name="Group 5">
        <path id="Path_53" data-name="Path 53" d="M369.207,325.627a1.126,1.126,0,1,0,1.126,1.126A1.127,1.127,0,0,0,369.207,325.627Zm0,1.7a.571.571,0,1,1,.571-.571A.571.571,0,0,1,369.207,327.323Z" transform="translate(-368.081 -325.627)" fill="red"/>
      </g>
    </g>
  </g>
</svg>
