<svg xmlns="http://www.w3.org/2000/svg" width="21.838" height="16.208" viewBox="0 0 21.838 16.208">
  <g id="gold" transform="translate(0 -65.998)">
    <g id="Group_8" data-name="Group 8" transform="translate(0 65.998)">
      <path id="Path_89" data-name="Path 89" d="M21.819,177.39l-1.166-3.7a.427.427,0,0,0-.407-.3H18.227L17.155,170a.427.427,0,0,0-.407-.3H14.73l-1.072-3.4a.427.427,0,0,0-.407-.3H8.588a.427.427,0,0,0-.407.3l-1.072,3.4H5.09a.427.427,0,0,0-.407.3l-1.072,3.4H1.593a.427.427,0,0,0-.407.3L.02,177.39a.427.427,0,0,0,.407.555H9a.427.427,0,0,0,0-.853H8l.9-2.844h4.038l.9,2.844h-1a.427.427,0,0,0,0,.853h8.573a.427.427,0,0,0,.407-.555ZM17.333,173.4H11.5l.9-2.844h4.038Zm-6.413-.992-.584-1.852H11.5ZM8.9,166.855h4.038l.9,2.844H8Zm-3.5,3.7H9.441l.9,2.844H4.506Zm-4.394,6.54.9-2.844H5.943l.9,2.844Zm6.413-.992-.584-1.852H8.006Zm6.411-1.852H15l-.584,1.852ZM15,177.092l.9-2.844h4.038l.9,2.844Z" transform="translate(0 -161.736)" fill="red"/>
      <path id="Path_90" data-name="Path 90" d="M246.427,68.18a.427.427,0,0,0,.427-.427V66.425a.427.427,0,0,0-.853,0v1.329A.427.427,0,0,0,246.427,68.18Z" transform="translate(-235.507 -65.998)" fill="red"/>
      <path id="Path_91" data-name="Path 91" d="M299.546,83.729a.426.426,0,0,0,.583-.156l.664-1.151a.427.427,0,0,0-.739-.427l-.664,1.151A.426.426,0,0,0,299.546,83.729Z" transform="translate(-286.565 -81.109)" fill="red"/>
      <path id="Path_92" data-name="Path 92" d="M341.482,126.427a.425.425,0,0,0,.213-.057l1.151-.664a.427.427,0,0,0-.427-.739l-1.151.665a.427.427,0,0,0,.214.8Z" transform="translate(-326.508 -122.396)" fill="red"/>
      <path id="Path_93" data-name="Path 93" d="M177.807,83.573a.427.427,0,0,0,.739-.427L177.881,82a.427.427,0,0,0-.739.427Z" transform="translate(-169.532 -81.109)" fill="red"/>
      <path id="Path_94" data-name="Path 94" d="M124.172,125.705l1.151.664a.427.427,0,1,0,.427-.739l-1.151-.664a.427.427,0,0,0-.427.739Z" transform="translate(-118.671 -122.396)" fill="red"/>
      <path id="Path_95" data-name="Path 95" d="M246.431,426h0a.427.427,0,1,0,.427.427A.426.426,0,0,0,246.43,426Z" transform="translate(-235.511 -410.647)" fill="red"/>
    </g>
  </g>
</svg>
