<svg xmlns="http://www.w3.org/2000/svg" width="18.861" height="18.713" viewBox="0 0 18.861 18.713">
  <g id="Statistic" transform="translate(-2 -2.473)">
    <path id="Path_50" data-name="Path 50" d="M20.547,29.574H19.6V17.314A.314.314,0,0,0,19.29,17H16.146a.314.314,0,0,0-.314.314v12.26H15.2V20.458a.314.314,0,0,0-.314-.314H11.745a.314.314,0,0,0-.314.314v9.116H10.8V23.6a.314.314,0,0,0-.314-.314H7.344a.314.314,0,0,0-.314.314v5.973H5.144v-.107a1.889,1.889,0,0,0,.723-3.1l0,0A1.9,1.9,0,0,0,4.515,25.8a.314.314,0,1,1,.314-.314.314.314,0,0,0,.314.314h.943a.314.314,0,0,0,.314-.314,1.894,1.894,0,0,0-.943-1.635v-.566a.314.314,0,0,0-.314-.314H4.2a.314.314,0,0,0-.314.314v.422a1.886,1.886,0,0,0,.629,3.665.314.314,0,1,1-.314.314.314.314,0,0,0-.314-.314H2.943a.314.314,0,0,0-.314.314,1.894,1.894,0,0,0,.943,1.635v.251H2.314A.314.314,0,0,0,2,29.889v.943a.314.314,0,0,0,.314.314H20.547a.314.314,0,0,0,.314-.314v-.943A.314.314,0,0,0,20.547,29.574ZM16.46,17.629h2.515V29.574H16.46Zm-4.4,3.144h2.515v8.8H12.059Zm-4.4,3.144h2.515v5.658H7.658ZM4.012,28.844A1.272,1.272,0,0,1,3.3,28h.328a.943.943,0,1,0,.889-1.257,1.257,1.257,0,0,1-.251-2.489.314.314,0,0,0,.251-.308V23.6h.314v.443a.314.314,0,0,0,.189.287,1.272,1.272,0,0,1,.715.841H5.4a.943.943,0,1,0-.889,1.257,1.257,1.257,0,0,1,.251,2.489.314.314,0,0,0-.251.308v.346H4.2v-.443A.314.314,0,0,0,4.012,28.844Zm16.221,1.674H2.629V30.2h17.6Z" transform="translate(0 -9.96)" fill="red"/>
    <path id="Path_51" data-name="Path 51" d="M13.405,13.013a.314.314,0,0,1-.222-.092l-1.334-1.334a.314.314,0,0,1,0-.444L18.87,4.121,18.2,3.454a.314.314,0,0,1,.183-.534l3.556-.444a.314.314,0,0,1,.351.352L21.85,6.383a.314.314,0,0,1-.534.183L20.648,5.9l-7.021,7.021A.314.314,0,0,1,13.405,13.013Zm-.889-1.648.889.889,7.021-7.021a.314.314,0,0,1,.444,0l.435.435L21.62,3.15,19.1,3.464l.435.435a.314.314,0,0,1,0,.444Z" transform="translate(-6.69)" fill="red"/>
  </g>
</svg>
