<svg xmlns="http://www.w3.org/2000/svg" width="20.035" height="20.035" viewBox="0 0 20.035 20.035">
  <g id="account" transform="translate(0 0)">
    <path id="Path_56" data-name="Path 56" d="M120.646,160.323a.323.323,0,1,1-.323-.323A.323.323,0,0,1,120.646,160.323Zm0,0" transform="translate(-115.153 -153.537)" fill="red"/>
    <path id="Path_57" data-name="Path 57" d="M200.646,160.323a.323.323,0,1,1-.323-.323A.323.323,0,0,1,200.646,160.323Zm0,0" transform="translate(-191.921 -153.537)" fill="red"/>
    <path id="Path_58" data-name="Path 58" d="M138.585,216h-.646a.646.646,0,1,1-1.293,0H136a1.293,1.293,0,1,0,2.585,0Zm0,0" transform="translate(-130.506 -207.275)" fill="red"/>
    <path id="Path_59" data-name="Path 59" d="M368.969,51.231a.324.324,0,0,1-.323-.323H368a.968.968,0,0,0,.646.91v.706h.646v-.706a.967.967,0,0,0-.323-1.879.323.323,0,1,1,.323-.323h.646a.968.968,0,0,0-.646-.91V48h-.646v.706a.967.967,0,0,0,.323,1.879.323.323,0,1,1,0,.646Zm0,0" transform="translate(-353.135 -46.061)" fill="red"/>
    <path id="Path_60" data-name="Path 60" d="M307.555,23.109A3.555,3.555,0,1,0,304,19.555,3.559,3.559,0,0,0,307.555,23.109Zm0-6.463a2.908,2.908,0,1,1-2.908,2.908A2.912,2.912,0,0,1,307.555,16.646Zm0,0" transform="translate(-291.72 -15.354)" fill="red"/>
    <path id="Path_61" data-name="Path 61" d="M15.511,10.018a4.526,4.526,0,0,0-4.091,2.6l-2.7-.9v-.669a3.566,3.566,0,0,0,1.483-2.025,1.612,1.612,0,0,0,1.425-1.6v-2.9A4.533,4.533,0,0,0,3.352,1.984,2.027,2.027,0,0,0,1.939,3.917V7.432a1.612,1.612,0,0,0,1.425,1.6,3.563,3.563,0,0,0,1.483,2.025v.669l-3.3,1.1A2.258,2.258,0,0,0,0,14.97v5.066H13.572V18.623a4.522,4.522,0,1,0,1.939-8.605ZM10.327,8.347c.007-.089.014-.178.014-.268V6.522a.963.963,0,0,1-.014,1.824ZM2.585,7.432a.968.968,0,0,1,.646-.91V8.079c0,.09.007.179.014.268a.968.968,0,0,1-.66-.914Zm.646-2.908V5.849a1.6,1.6,0,0,0-.646.3V3.917A1.381,1.381,0,0,1,3.633,2.575l.121-.03.112-.168a3.887,3.887,0,0,1,7.121,2.156V6.148a1.6,1.6,0,0,0-.646-.3V4.524H9.825A5.6,5.6,0,0,1,6.341,3.3l-.261-.208-.2.266A2.923,2.923,0,0,1,3.555,4.524Zm.646,3.555V5.155A3.582,3.582,0,0,0,6.192,4a6.251,6.251,0,0,0,3.5,1.17v2.91a2.908,2.908,0,1,1-5.817,0Zm2.908,3.555a3.529,3.529,0,0,0,1.293-.247v.53a1.332,1.332,0,0,1-2.585,0v-.53A3.529,3.529,0,0,0,6.786,11.633ZM.646,14.97a1.614,1.614,0,0,1,1.1-1.533l3.215-1.072a1.972,1.972,0,0,0,1.5,1.18v5.844H3.231V16.481H2.585v2.908H.646Zm12.28,4.419H10.987V16.48h-.646v2.908H7.109V13.545a1.973,1.973,0,0,0,1.5-1.18l2.578.859a4.513,4.513,0,0,0,1.742,5.025Zm2.585-.969a3.878,3.878,0,1,1,3.878-3.878A3.882,3.882,0,0,1,15.511,18.419Zm0,0" fill="red"/>
    <path id="Path_62" data-name="Path 62" d="M323.555,296h-1.939v1.616H320v1.939h1.616v1.616h1.939v-1.616h1.616v-1.939h-1.616Zm.969,2.262v.646h-1.616v1.616h-.646v-1.616h-1.616v-.646h1.616v-1.616h.646v1.616Zm0,0" transform="translate(-307.074 -284.044)" fill="red"/>
    <path id="Path_63" data-name="Path 63" d="M128,352h.646v.646H128Zm0,0" transform="translate(-122.83 -337.782)" fill="red"/>
    <path id="Path_64" data-name="Path 64" d="M128,384h.646v.646H128Zm0,0" transform="translate(-122.83 -368.489)" fill="red"/>
    <path id="Path_65" data-name="Path 65" d="M128,416h.646v.646H128Zm0,0" transform="translate(-122.83 -399.196)" fill="red"/>
    <path id="Path_66" data-name="Path 66" d="M208,360h1.293v.646H208Zm0,0" transform="translate(-199.598 -345.458)" fill="red"/>
    <path id="Path_67" data-name="Path 67" d="M128,448h.646v.646H128Zm0,0" transform="translate(-122.83 -429.904)" fill="red"/>
  </g>
</svg>
